<?xml version="1.0" encoding="UTF-8"?>
<svg id="Layer_1" data-name="Layer 1" xmlns="http://www.w3.org/2000/svg" viewBox="0 0 311.52 169.31">
  <defs>
    <style>
      .cls-1 {
        fill: #231f20;
      }

      .cls-2 {
        fill: #09a94e;
      }
    </style>
  </defs>
  <g>
    <path class="cls-2" d="M40.94,0c-1.22,0-2.38,.51-3.2,1.41C12.65,28.7,0,53.39,0,75c0,4.24,.49,8.37,1.46,12.37,5.85,24,27.19,35.52,34.83,38.95v16.88c0,2.4,1.94,4.35,4.35,4.35s4.35-1.95,4.35-4.35v-19.74c0-1.82-1.14-3.45-2.85-4.08-.26-.1-26.39-9.97-32.24-34.15-.8-3.32-1.2-6.75-1.2-10.3,0-18.39,10.89-39.87,32.25-64,21.17,23.86,32.21,44.61,32.21,60.8,0,3.39-.48,6.58-1.44,9.56-4.48,13.89-18.45,20.49-26.13,23.16v-11.35c3.76-1.88,18.42-9.22,18.42-9.22,1.15-.57,1.98-1.62,2.28-2.87,.08-.33,.12-.67,.12-1.01,0-.92-.29-1.83-.85-2.59,0,0-8.76-11.85-12.57-17.01,2.26-1.32,4.54-2.65,4.54-2.65,1.03-.6,1.78-1.61,2.04-2.78,.07-.32,.11-.65,.11-.97,0-.85-.25-1.7-.73-2.42l-14.16-21.14c-.79-1.18-2.11-1.9-3.53-1.93-1.42-.02-2.76,.65-3.6,1.79l-15.33,21.14c-.54,.75-.83,1.64-.83,2.55,0,.3,.03,.6,.09,.89,.25,1.2,1,2.24,2.06,2.86,0,0,2.27,1.33,4.54,2.65-3.81,5.16-12.57,17.01-12.57,17.01-.56,.75-.85,1.67-.85,2.59,0,.31,.03,.63,.1,.95,.28,1.23,1.07,2.27,2.18,2.87l11.48,6.19c2.11,1.14,4.75,.35,5.89-1.76,.35-.66,.52-1.36,.52-2.06,0-1.55-.83-3.05-2.29-3.83,0,0-3.72-2.01-7.07-3.81,3.88-5.25,12.47-16.87,12.47-16.87,.56-.75,.85-1.66,.85-2.58,0-.29-.03-.59-.09-.88-.25-1.21-1-2.25-2.07-2.88,0,0-2.29-1.34-4.58-2.67,2.66-3.66,5.63-7.77,8.85-12.21,3,4.48,5.7,8.51,8.12,12.12-2.35,1.37-4.73,2.76-4.73,2.76-1.06,.62-1.82,1.67-2.07,2.88-.06,.29-.09,.58-.09,.88,0,.92,.29,1.83,.85,2.58,0,0,8.44,11.41,12.38,16.75-5.6,2.8-16.2,8.11-16.2,8.11-1.47,.74-2.4,2.24-2.4,3.89v19.87c0,1.3,.59,2.54,1.6,3.37,1.01,.83,2.34,1.16,3.62,.89,1.22-.25,30.02-6.35,37.86-30.52,6.94-21.4-5.11-49.2-35.83-82.62-.83-.9-1.98-1.4-3.2-1.4Z"/>
    <path class="cls-1" d="M109.86,43.19c0,.83-.63,1.54-1.5,1.54-1.54,0-2.05-1.82-5.53-1.82-2.57,0-4.46,1.62-4.46,3.99,0,6.2,13.35,3.24,13.35,12.72,0,4.66-3.4,8.89-9.52,8.89-3.71,0-7.82-1.42-7.82-3.4,0-.95,.47-1.78,1.46-1.78,1.18,0,2.84,2.17,6.4,2.17s5.77-2.61,5.77-5.73c0-6.68-13.35-3.44-13.35-12.64,0-3.28,3.08-7.23,8.3-7.23,3.48,0,6.92,1.46,6.92,3.28Z"/>
    <path class="cls-1" d="M114.84,41.76c0-1.14,.67-1.86,1.74-1.86s1.74,.71,1.74,1.86v16.71c0,4.42,3,7.03,7.43,7.03s7.43-2.61,7.43-7.03v-16.71c0-1.14,.67-1.86,1.74-1.86s1.74,.71,1.74,1.86v15.37c0,9.48-6.08,11.38-10.9,11.38s-10.9-1.9-10.9-11.38v-15.37Z"/>
    <path class="cls-1" d="M156.05,43.19c0,.83-.63,1.54-1.5,1.54-1.54,0-2.05-1.82-5.53-1.82-2.57,0-4.46,1.62-4.46,3.99,0,6.2,13.35,3.24,13.35,12.72,0,4.66-3.4,8.89-9.52,8.89-3.71,0-7.82-1.42-7.82-3.4,0-.95,.47-1.78,1.46-1.78,1.18,0,2.84,2.17,6.4,2.17s5.77-2.61,5.77-5.73c0-6.68-13.36-3.44-13.36-12.64,0-3.28,3.08-7.23,8.3-7.23,3.48,0,6.92,1.46,6.92,3.28Z"/>
    <path class="cls-1" d="M166.56,43.39h-5.25c-.99,0-1.7-.51-1.7-1.62s.71-1.62,1.7-1.62h13.99c.99,0,1.7,.51,1.7,1.62s-.71,1.62-1.7,1.62h-5.25v23.27c0,1.14-.67,1.86-1.74,1.86s-1.74-.71-1.74-1.86v-23.27Z"/>
    <path class="cls-1" d="M178.45,67.21c-.28,.75-.75,1.3-1.7,1.3s-1.66-.55-1.66-1.46c0-.47,.35-1.38,.47-1.74l8.73-23.27c.43-1.23,1.14-2.13,2.49-2.13s2.05,.91,2.49,2.13l8.73,23.27c.12,.35,.47,1.26,.47,1.74,0,.91-.75,1.46-1.66,1.46s-1.42-.55-1.7-1.3l-1.82-5.06h-13.04l-1.82,5.06Zm8.37-23.27h-.08l-5.41,15.21h10.9l-5.41-15.21Z"/>
    <path class="cls-1" d="M205.44,66.66c0,1.14-.67,1.86-1.74,1.86s-1.74-.71-1.74-1.86v-24.89c0-1.14,.67-1.86,1.74-1.86s1.74,.71,1.74,1.86v24.89Z"/>
    <path class="cls-1" d="M214.29,66.66c0,1.14-.67,1.86-1.74,1.86s-1.74-.71-1.74-1.86v-24.69c0-1.38,.47-2.06,1.58-2.06,1.03,0,1.5,.43,2.45,1.82l14.22,20.43h.08v-20.39c0-1.14,.67-1.86,1.74-1.86s1.74,.71,1.74,1.86v24.69c0,1.38-.47,2.05-1.58,2.05-1.03,0-1.5-.43-2.45-1.82l-14.22-20.43h-.08v20.39Z"/>
    <path class="cls-1" d="M238.66,67.21c-.28,.75-.75,1.3-1.7,1.3s-1.66-.55-1.66-1.46c0-.47,.36-1.38,.47-1.74l8.73-23.27c.43-1.23,1.14-2.13,2.49-2.13s2.05,.91,2.49,2.13l8.73,23.27c.12,.35,.47,1.26,.47,1.74,0,.91-.75,1.46-1.66,1.46s-1.42-.55-1.7-1.3l-1.82-5.06h-13.04l-1.82,5.06Zm8.37-23.27h-.08l-5.41,15.21h10.9l-5.41-15.21Z"/>
    <path class="cls-1" d="M261.38,42.04c0-1.07,.55-1.9,1.86-1.9h6.12c4.98,0,7.59,3.52,7.59,6.72s-1.62,5.45-3.91,6.16v.08c3.4,.36,6.08,3.24,6.08,6.95,0,4.43-3.28,8.22-9.21,8.22h-6.68c-1.3,0-1.86-.83-1.86-1.9v-24.34Zm3.48,10h3.95c2.96,0,4.66-1.98,4.66-4.54s-1.46-4.35-4.54-4.35h-4.07v8.89Zm0,13.23h4.9c3.4,0,5.89-2.09,5.89-5.21,0-2.88-2.09-5.18-5.73-5.18h-5.06v10.39Z"/>
    <path class="cls-1" d="M286.07,65.04h7.43c.99,0,1.7,.51,1.7,1.62s-.71,1.62-1.7,1.62h-9.05c-1.3,0-1.86-.83-1.86-1.9v-24.62c0-1.14,.67-1.86,1.74-1.86s1.74,.71,1.74,1.86v23.27Z"/>
    <path class="cls-1" d="M301.45,65.04h8.37c.99,0,1.7,.51,1.7,1.62s-.71,1.62-1.7,1.62h-10c-1.3,0-1.86-.83-1.86-1.9v-24.34c0-1.07,.55-1.9,1.86-1.9h10c.99,0,1.7,.51,1.7,1.62s-.71,1.62-1.7,1.62h-8.37v9.21h7.62c.99,0,1.7,.51,1.7,1.62s-.71,1.62-1.7,1.62h-7.62v9.21Z"/>
    <path class="cls-1" d="M98.93,101.79c0,1.15-.67,1.86-1.74,1.86s-1.74-.71-1.74-1.86v-24.61c0-1.07,.55-1.9,1.86-1.9h9.88c.99,0,1.7,.51,1.7,1.62s-.71,1.62-1.7,1.62h-8.26v9.21h7.31c.99,0,1.7,.51,1.7,1.62s-.71,1.62-1.7,1.62h-7.31v10.83Z"/>
    <path class="cls-1" d="M122.79,75.04c8.02,0,12.33,6.99,12.33,14.3s-4.31,14.3-12.33,14.3-12.33-6.99-12.33-14.3,4.31-14.3,12.33-14.3Zm0,25.6c6.32,0,8.61-5.93,8.61-11.3s-2.29-11.3-8.61-11.3-8.61,5.93-8.61,11.3,2.29,11.3,8.61,11.3Z"/>
    <path class="cls-1" d="M141.32,101.79c0,1.15-.67,1.86-1.74,1.86s-1.74-.71-1.74-1.86v-24.61c0-1.07,.55-1.9,1.86-1.9h6.44c4.43,0,8.61,3,8.61,7.59,0,5.69-3.48,7.82-7.67,7.98l-1.5,.04,8.97,9.84c.47,.51,.67,.95,.67,1.58,0,.75-.71,1.34-1.58,1.34-.71,0-1.18-.35-1.58-.79l-10.75-11.77v10.71Zm0-13.51h4.74c3.64,0,5.22-1.54,5.22-5.17,0-2.61-2.05-4.82-5.29-4.82h-4.66v9.99Z"/>
    <path class="cls-1" d="M162.62,100.17h8.37c.99,0,1.7,.51,1.7,1.62s-.71,1.62-1.7,1.62h-9.99c-1.3,0-1.86-.83-1.86-1.9v-24.34c0-1.07,.55-1.9,1.86-1.9h9.99c.99,0,1.7,.51,1.7,1.62s-.71,1.62-1.7,1.62h-8.37v9.21h7.63c.99,0,1.7,.51,1.7,1.62s-.71,1.62-1.7,1.62h-7.63v9.21Z"/>
    <path class="cls-1" d="M190.71,78.32c0,.83-.63,1.54-1.5,1.54-1.54,0-2.05-1.81-5.53-1.81-2.57,0-4.46,1.62-4.46,3.99,0,6.2,13.35,3.24,13.35,12.72,0,4.66-3.4,8.89-9.52,8.89-3.71,0-7.82-1.42-7.82-3.4,0-.95,.47-1.78,1.46-1.78,1.19,0,2.84,2.17,6.4,2.17s5.77-2.61,5.77-5.73c0-6.68-13.35-3.44-13.35-12.64,0-3.28,3.08-7.23,8.3-7.23,3.48,0,6.91,1.46,6.91,3.28Z"/>
    <path class="cls-1" d="M200.43,78.52h-5.26c-.99,0-1.7-.51-1.7-1.62s.71-1.62,1.7-1.62h13.99c.99,0,1.7,.51,1.7,1.62s-.71,1.62-1.7,1.62h-5.26v23.27c0,1.15-.67,1.86-1.74,1.86s-1.74-.71-1.74-1.86v-23.27Z"/>
    <path class="cls-1" d="M216.71,101.79c0,1.15-.67,1.86-1.74,1.86s-1.74-.71-1.74-1.86v-24.61c0-1.07,.55-1.9,1.86-1.9h6.44c4.43,0,8.61,3,8.61,7.59,0,5.69-3.48,7.82-7.67,7.98l-1.5,.04,8.97,9.84c.47,.51,.67,.95,.67,1.58,0,.75-.71,1.34-1.58,1.34-.71,0-1.18-.35-1.58-.79l-10.75-11.77v10.71Zm0-13.51h4.74c3.63,0,5.21-1.54,5.21-5.17,0-2.61-2.06-4.82-5.29-4.82h-4.66v9.99Z"/>
    <path class="cls-1" d="M238.79,90.21l-7.55-12.29c-.39-.63-.55-1.03-.55-1.46,0-.87,.71-1.42,1.58-1.42,.63,0,1.22,.24,1.74,1.11l6.52,10.63,6.52-10.63c.51-.87,1.11-1.11,1.74-1.11,.87,0,1.58,.55,1.58,1.42,0,.44-.16,.83-.55,1.46l-7.55,12.29v11.58c0,1.15-.67,1.86-1.74,1.86s-1.74-.71-1.74-1.86v-11.58Z"/>
    <path class="cls-1" d="M99.47,138.07c0,1.14-.67,1.86-1.74,1.86s-1.74-.71-1.74-1.86v-24.89c0-1.15,.67-1.86,1.74-1.86s1.74,.71,1.74,1.86v24.89Z"/>
    <path class="cls-1" d="M108.32,138.07c0,1.14-.67,1.86-1.74,1.86s-1.74-.71-1.74-1.86v-24.69c0-1.38,.47-2.05,1.58-2.05,1.03,0,1.5,.43,2.45,1.82l14.22,20.43h.08v-20.39c0-1.15,.67-1.86,1.74-1.86s1.74,.71,1.74,1.86v24.69c0,1.38-.47,2.05-1.58,2.05-1.03,0-1.5-.44-2.45-1.82l-14.22-20.43h-.08v20.39Z"/>
    <path class="cls-1" d="M135.5,138.07c0,1.14-.67,1.86-1.74,1.86s-1.74-.71-1.74-1.86v-24.89c0-1.15,.67-1.86,1.74-1.86s1.74,.71,1.74,1.86v24.89Z"/>
    <path class="cls-1" d="M145.61,114.8h-5.25c-.99,0-1.7-.51-1.7-1.62s.71-1.62,1.7-1.62h13.99c.99,0,1.7,.51,1.7,1.62s-.71,1.62-1.7,1.62h-5.25v23.27c0,1.14-.67,1.86-1.74,1.86s-1.74-.71-1.74-1.86v-23.27Z"/>
    <path class="cls-1" d="M162.68,138.07c0,1.14-.67,1.86-1.74,1.86s-1.74-.71-1.74-1.86v-24.89c0-1.15,.67-1.86,1.74-1.86s1.74,.71,1.74,1.86v24.89Z"/>
    <path class="cls-1" d="M168.73,138.62c-.28,.75-.75,1.3-1.7,1.3s-1.66-.55-1.66-1.46c0-.47,.36-1.38,.47-1.74l8.73-23.27c.43-1.22,1.14-2.13,2.49-2.13s2.05,.91,2.49,2.13l8.73,23.27c.12,.35,.48,1.26,.48,1.74,0,.91-.75,1.46-1.66,1.46s-1.42-.55-1.7-1.3l-1.82-5.06h-13.04l-1.82,5.06Zm8.38-23.27h-.08l-5.41,15.21h10.91l-5.41-15.21Z"/>
    <path class="cls-1" d="M193.03,114.8h-5.26c-.99,0-1.7-.51-1.7-1.62s.71-1.62,1.7-1.62h13.99c.99,0,1.7,.51,1.7,1.62s-.71,1.62-1.7,1.62h-5.25v23.27c0,1.14-.67,1.86-1.74,1.86s-1.74-.71-1.74-1.86v-23.27Z"/>
    <path class="cls-1" d="M210.09,138.07c0,1.14-.67,1.86-1.74,1.86s-1.74-.71-1.74-1.86v-24.89c0-1.15,.67-1.86,1.74-1.86s1.74,.71,1.74,1.86v24.89Z"/>
    <path class="cls-1" d="M231.31,113.57c.43-1.22,.75-2.25,2.13-2.25,.95,0,1.54,.71,1.54,1.42,0,.48-.08,.87-.24,1.35l-8.57,23.94c-.4,1.15-.83,1.9-2.02,1.9s-1.62-.75-2.01-1.9l-8.57-23.94c-.16-.47-.24-.87-.24-1.35,0-.71,.59-1.42,1.54-1.42,1.38,0,1.7,1.03,2.13,2.25l7.11,20.51h.08l7.12-20.51Z"/>
    <path class="cls-1" d="M241.7,136.45h8.38c.99,0,1.7,.51,1.7,1.62s-.71,1.62-1.7,1.62h-10c-1.3,0-1.86-.83-1.86-1.9v-24.34c0-1.07,.55-1.9,1.86-1.9h10c.99,0,1.7,.51,1.7,1.62s-.71,1.62-1.7,1.62h-8.38v9.21h7.63c.99,0,1.7,.51,1.7,1.62s-.71,1.62-1.7,1.62h-7.63v9.21Z"/>
  </g>
  <path class="cls-1" d="M26.54,3.27c1.48,0,2.65,1.2,2.65,2.7s-1.18,2.71-2.66,2.71-2.68-1.19-2.68-2.71,1.2-2.7,2.68-2.7h.01Zm-.01,.42c-1.19,0-2.16,1.02-2.16,2.28s.97,2.29,2.17,2.29c1.2,.01,2.16-1.01,2.16-2.28s-.96-2.29-2.16-2.29h-.01Zm-.5,3.85h-.48v-3.01c.25-.04,.49-.07,.85-.07,.46,0,.76,.1,.94,.23,.18,.13,.28,.34,.28,.62,0,.4-.26,.64-.59,.73v.02c.26,.05,.44,.29,.5,.73,.07,.47,.14,.65,.19,.74h-.5c-.07-.1-.14-.37-.2-.77-.07-.38-.26-.53-.65-.53h-.34v1.3Zm0-1.67h.35c.4,0,.73-.14,.73-.52,0-.26-.19-.53-.73-.53-.16,0-.26,.01-.35,.02v1.02Z"/>
  <g>
    <path class="cls-1" d="M130.23,166.25v.28c0,1.3,.92,1.71,1.79,1.71,1.08,0,1.91-.41,1.91-1.55,0-2.12-4.81-1.88-4.81-4.76,0-1.7,1.35-2.6,3.14-2.6,1.96,0,3.06,.85,2.97,2.8h-1.43c.02-1.05-.36-1.74-1.65-1.74-.82,0-1.65,.37-1.65,1.41,0,2.11,4.81,1.8,4.81,4.84,0,2.02-1.56,2.67-3.32,2.67-3.16,.03-3.16-2.14-3.13-3.05h1.35Z"/>
    <path class="cls-1" d="M137.32,169.11v-9.58h5.31v1.06h-3.95v3.08h3.74v1.06h-3.74v4.38h-1.37Z"/>
    <path class="cls-1" d="M145.55,169.11h-1.37v-9.58h1.37v9.58Z"/>
    <path class="cls-1" d="M147.76,164.98h3.27v1.02h-3.27v-1.02Z"/>
    <path class="cls-1" d="M157.93,164.54c0,2.4,.01,4.76-2.78,4.76s-2.77-2.36-2.77-4.76-.04-4.79,2.77-4.79,2.78,2.31,2.78,4.79Zm-4.19,.24c0,1.55-.1,3.5,1.41,3.5s1.41-1.95,1.41-3.5c0-2.48-.01-4.01-1.41-4.01s-1.41,1.53-1.41,4.01Z"/>
    <path class="cls-1" d="M164.52,164.54c0,2.4,.01,4.76-2.77,4.76s-2.78-2.36-2.78-4.76-.04-4.79,2.78-4.79,2.77,2.31,2.77,4.79Zm-4.18,.24c0,1.55-.1,3.5,1.41,3.5s1.41-1.95,1.41-3.5c0-2.48-.01-4.01-1.41-4.01s-1.41,1.53-1.41,4.01Z"/>
    <path class="cls-1" d="M171.1,164.54c0,2.4,.01,4.76-2.77,4.76s-2.78-2.36-2.78-4.76-.04-4.79,2.78-4.79,2.77,2.31,2.77,4.79Zm-4.18,.24c0,1.55-.1,3.5,1.41,3.5s1.41-1.95,1.41-3.5c0-2.48-.01-4.01-1.41-4.01s-1.41,1.53-1.41,4.01Z"/>
    <path class="cls-1" d="M177.69,164.54c0,2.4,.01,4.76-2.77,4.76s-2.78-2.36-2.78-4.76-.04-4.79,2.78-4.79,2.77,2.31,2.77,4.79Zm-4.18,.24c0,1.55-.1,3.5,1.41,3.5s1.41-1.95,1.41-3.5c0-2.48-.01-4.01-1.41-4.01s-1.41,1.53-1.41,4.01Z"/>
    <path class="cls-1" d="M182.49,169.11h-1.37v-7.87l-1.54,.93v-1.17c.34-.13,1.32-.8,1.74-1.1h1.17v9.21Z"/>
  </g>
</svg>